<svg width="24" height="32" viewBox="0 0 24 32" fill="none" xmlns="http://www.w3.org/2000/svg">
<path fill-rule="evenodd" clip-rule="evenodd" d="M10.42 1.6C11.38 0.59 12 0 12 0C12.2187 0.725333 12.466 1.41733 12.742 2.076C14.366 5.968 16.888 8.776 19.136 11.276C21.756 14.192 24 16.69 24 20C24 23.1826 22.7357 26.2348 20.4853 28.4853C18.2348 30.7357 15.1826 32 12 32C8.8174 32 5.76516 30.7357 3.51472 28.4853C1.26428 26.2348 4.74244e-08 23.1826 0 20C0 13.336 7.16 5.034 10.42 1.6ZM11.246 3.642C9.9611 5.03141 8.74049 6.47893 7.588 7.98C6.136 9.88 4.716 11.996 3.668 14.12C2.608 16.266 2 18.276 2 20C2 22.6522 3.05357 25.1957 4.92893 27.0711C6.8043 28.9464 9.34784 30 12 30C14.6522 30 17.1957 28.9464 19.0711 27.0711C20.9464 25.1957 22 22.6522 22 20C22 17.598 20.408 15.686 17.638 12.6L17.578 12.536C15.5 10.22 13 7.442 11.246 3.642Z" fill="#101828"/>
<path fill-rule="evenodd" clip-rule="evenodd" d="M5.10596 15.552C6.74596 12.27 8.53996 10.046 9.29196 9.29199L10.708 10.708C10.128 11.288 8.45196 13.33 6.89396 16.448L5.10596 15.552Z" fill="#101828"/>
</svg>
